<svg width="50" height="50" viewBox="0 0 50 50" fill="none" xmlns="http://www.w3.org/2000/svg">
<rect width="50" height="50" rx="5" transform="matrix(1 -8.74228e-08 -8.74228e-08 -1 0 50)" fill="white"/>
<path d="M28.5657 17.449C28.8439 17.7333 29 18.118 29 18.519C29 18.92 28.8439 19.3047 28.5657 19.5891L23.2782 25.0379L28.5657 30.4109C28.8439 30.6953 29 31.08 29 31.481C29 31.882 28.8439 32.2667 28.5657 32.551C28.4268 32.6933 28.2616 32.8062 28.0796 32.8833C27.8976 32.9603 27.7024 33 27.5052 33C27.308 33 27.1128 32.9603 26.9308 32.8833C26.7488 32.8062 26.5836 32.6933 26.4447 32.551L20.1117 26.1156C19.9717 25.9745 19.8606 25.8066 19.7848 25.6217C19.7089 25.4367 19.6699 25.2383 19.6699 25.0379C19.6699 24.8376 19.7089 24.6392 19.7848 24.4542C19.8606 24.2693 19.9717 24.1014 20.1117 23.9603L26.4447 17.449C26.5836 17.3067 26.7488 17.1938 26.9308 17.1167C27.1128 17.0397 27.308 17 27.5052 17C27.7024 17 27.8976 17.0397 28.0796 17.1167C28.2616 17.1938 28.4268 17.3067 28.5657 17.449Z" fill="#697687"/>
</svg>
