<svg width="88" height="64" viewBox="0 0 88 64" fill="none" xmlns="http://www.w3.org/2000/svg">
<path d="M1.52352 58V45.22H6.16752C7.03152 45.22 7.77552 45.358 8.39952 45.634C9.03552 45.898 9.52152 46.282 9.85752 46.786C10.2055 47.278 10.3795 47.86 10.3795 48.532C10.3795 49.144 10.2475 49.684 9.98352 50.152C9.71952 50.608 9.34752 50.968 8.86752 51.232C9.51552 51.484 10.0195 51.886 10.3795 52.438C10.7395 52.978 10.9195 53.62 10.9195 54.364C10.9195 55.108 10.7275 55.75 10.3435 56.29C9.95952 56.83 9.41952 57.25 8.72352 57.55C8.02752 57.85 7.20552 58 6.25752 58H1.52352ZM4.11552 47.434V50.368H5.87952C6.46752 50.368 6.91752 50.248 7.22952 50.008C7.55352 49.756 7.71552 49.39 7.71552 48.91C7.71552 48.43 7.55352 48.064 7.22952 47.812C6.91752 47.56 6.46752 47.434 5.87952 47.434H4.11552ZM4.11552 55.786H6.13152C6.80352 55.786 7.31952 55.642 7.67952 55.354C8.05152 55.066 8.23752 54.652 8.23752 54.112C8.23752 53.572 8.05152 53.158 7.67952 52.87C7.31952 52.582 6.80352 52.438 6.13152 52.438H4.11552V55.786ZM17.2011 58.27C16.4931 58.27 15.8391 58.144 15.2391 57.892C14.6391 57.64 14.1171 57.292 13.6731 56.848C13.2291 56.392 12.8811 55.858 12.6291 55.246C12.3891 54.634 12.2691 53.968 12.2691 53.248C12.2691 52.528 12.3951 51.868 12.6471 51.268C12.8991 50.656 13.2471 50.122 13.6911 49.666C14.1471 49.21 14.6751 48.856 15.2751 48.604C15.8871 48.352 16.5531 48.226 17.2731 48.226C17.9811 48.226 18.6351 48.352 19.2351 48.604C19.8351 48.856 20.3571 49.21 20.8011 49.666C21.2451 50.11 21.5871 50.638 21.8271 51.25C22.0791 51.85 22.2051 52.51 22.2051 53.23C22.2051 53.95 22.0791 54.616 21.8271 55.228C21.5751 55.84 21.2211 56.374 20.7651 56.83C20.3211 57.286 19.7931 57.64 19.1811 57.892C18.5811 58.144 17.9211 58.27 17.2011 58.27ZM17.2371 56.002C17.6931 56.002 18.1011 55.882 18.4611 55.642C18.8211 55.402 19.1031 55.078 19.3071 54.67C19.5231 54.25 19.6311 53.776 19.6311 53.248C19.6311 52.72 19.5231 52.252 19.3071 51.844C19.1031 51.424 18.8211 51.094 18.4611 50.854C18.1011 50.614 17.6931 50.494 17.2371 50.494C16.7811 50.494 16.3731 50.614 16.0131 50.854C15.6531 51.094 15.3651 51.424 15.1491 51.844C14.9451 52.252 14.8431 52.72 14.8431 53.248C14.8431 53.776 14.9451 54.25 15.1491 54.67C15.3651 55.078 15.6531 55.402 16.0131 55.642C16.3731 55.882 16.7811 56.002 17.2371 56.002ZM28.5214 58.27C27.8134 58.27 27.1594 58.144 26.5594 57.892C25.9594 57.64 25.4374 57.292 24.9934 56.848C24.5494 56.392 24.2014 55.858 23.9494 55.246C23.7094 54.634 23.5894 53.968 23.5894 53.248C23.5894 52.528 23.7154 51.868 23.9674 51.268C24.2194 50.656 24.5674 50.122 25.0114 49.666C25.4674 49.21 25.9954 48.856 26.5954 48.604C27.2074 48.352 27.8734 48.226 28.5934 48.226C29.3014 48.226 29.9554 48.352 30.5554 48.604C31.1554 48.856 31.6774 49.21 32.1214 49.666C32.5654 50.11 32.9074 50.638 33.1474 51.25C33.3994 51.85 33.5254 52.51 33.5254 53.23C33.5254 53.95 33.3994 54.616 33.1474 55.228C32.8954 55.84 32.5414 56.374 32.0854 56.83C31.6414 57.286 31.1134 57.64 30.5014 57.892C29.9014 58.144 29.2414 58.27 28.5214 58.27ZM28.5574 56.002C29.0134 56.002 29.4214 55.882 29.7814 55.642C30.1414 55.402 30.4234 55.078 30.6274 54.67C30.8434 54.25 30.9514 53.776 30.9514 53.248C30.9514 52.72 30.8434 52.252 30.6274 51.844C30.4234 51.424 30.1414 51.094 29.7814 50.854C29.4214 50.614 29.0134 50.494 28.5574 50.494C28.1014 50.494 27.6934 50.614 27.3334 50.854C26.9734 51.094 26.6854 51.424 26.4694 51.844C26.2654 52.252 26.1634 52.72 26.1634 53.248C26.1634 53.776 26.2654 54.25 26.4694 54.67C26.6854 55.078 26.9734 55.402 27.3334 55.642C27.6934 55.882 28.1014 56.002 28.5574 56.002ZM35.1818 58V44.572H37.6478V52.366L41.1758 48.496H44.1278L40.1678 52.708L44.5598 58H41.3738L37.6478 53.266V58H35.1818ZM49.5645 58V45.22H51.8865L57.8085 53.68V45.22H60.4005V58H58.0785L52.1565 49.54V58H49.5645ZM67.1581 58.27C66.4501 58.27 65.7961 58.144 65.1961 57.892C64.5961 57.64 64.0741 57.292 63.6301 56.848C63.1861 56.392 62.8381 55.858 62.5861 55.246C62.3461 54.634 62.2261 53.968 62.2261 53.248C62.2261 52.528 62.3521 51.868 62.6041 51.268C62.8561 50.656 63.2041 50.122 63.6481 49.666C64.1041 49.21 64.6321 48.856 65.2321 48.604C65.8441 48.352 66.5101 48.226 67.2301 48.226C67.9381 48.226 68.5921 48.352 69.1921 48.604C69.7921 48.856 70.3141 49.21 70.7581 49.666C71.2021 50.11 71.5441 50.638 71.7841 51.25C72.0361 51.85 72.1621 52.51 72.1621 53.23C72.1621 53.95 72.0361 54.616 71.7841 55.228C71.5321 55.84 71.1781 56.374 70.7221 56.83C70.2781 57.286 69.7501 57.64 69.1381 57.892C68.5381 58.144 67.8781 58.27 67.1581 58.27ZM67.1941 56.002C67.6501 56.002 68.0581 55.882 68.4181 55.642C68.7781 55.402 69.0601 55.078 69.2641 54.67C69.4801 54.25 69.5881 53.776 69.5881 53.248C69.5881 52.72 69.4801 52.252 69.2641 51.844C69.0601 51.424 68.7781 51.094 68.4181 50.854C68.0581 50.614 67.6501 50.494 67.1941 50.494C66.7381 50.494 66.3301 50.614 65.9701 50.854C65.6101 51.094 65.3221 51.424 65.1061 51.844C64.9021 52.252 64.8001 52.72 64.8001 53.248C64.8001 53.776 64.9021 54.25 65.1061 54.67C65.3221 55.078 65.6101 55.402 65.9701 55.642C66.3301 55.882 66.7381 56.002 67.1941 56.002ZM75.8773 58L72.7273 48.496H75.3193L77.1013 54.922L79.0273 48.496H81.2053L83.1313 54.94L84.9493 48.496H87.4513L84.3013 58H81.9793L80.0713 51.574L78.1633 58H75.8773Z" fill="white"/>
<path d="M52.2 3.03686C51.236 2.69875 50.4368 1.88903 50.4368 0.867476C50.4368 0.393256 50.0303 0 49.5402 0C49.0501 0 48.6437 0.393256 48.6437 0.867476C48.6437 1.82566 47.8669 2.60243 46.9087 2.60243H42.6085C41.6503 2.60243 40.8735 1.82566 40.8735 0.867476C40.8735 0.393256 40.4671 0 39.977 0C39.4869 0 39.0804 0.393256 39.0804 0.867476C39.0804 1.88903 38.2812 2.69875 37.3172 3.03686C35.2717 3.75433 34.2383 5.38442 34.0478 7.58753C34.0239 7.92295 34.3108 8.20054 34.6455 8.20054H54.8717C55.2184 8.20054 55.5053 7.91139 55.4694 7.58753C55.2789 5.38442 54.2455 3.75433 52.2 3.03686Z" fill="white"/>
<path d="M54.3218 9.93532H35.1954C34.5379 9.93532 34 10.4558 34 11.092V18.2168C34 21.6867 35.7931 24 39.977 24H49.5402C53.7241 24 55.5172 21.6867 55.5172 18.2168V11.092C55.5172 10.4558 54.9793 9.93532 54.3218 9.93532ZM41.4234 19.6164C41.3637 19.6626 41.3039 19.7204 41.2441 19.7551C41.1724 19.8014 41.1007 19.8361 41.029 19.8592C40.9572 19.8939 40.8855 19.9171 40.8138 19.9286C40.7301 19.9402 40.6584 19.9518 40.5747 19.9518C40.4193 19.9518 40.2639 19.9171 40.1205 19.8592C39.9651 19.8014 39.8455 19.7204 39.726 19.6164C39.5108 19.3966 39.3793 19.0959 39.3793 18.7951C39.3793 18.4944 39.5108 18.1937 39.726 17.9739C39.8455 17.8698 39.9651 17.7889 40.1205 17.731C40.3356 17.6385 40.5747 17.6154 40.8138 17.6616C40.8855 17.6732 40.9572 17.6963 41.029 17.731C41.1007 17.7542 41.1724 17.7889 41.2441 17.8351C41.3039 17.8814 41.3637 17.9277 41.4234 17.9739C41.6386 18.1937 41.7701 18.4944 41.7701 18.7951C41.7701 19.0959 41.6386 19.3966 41.4234 19.6164ZM41.4234 15.5681C41.1963 15.7763 40.8855 15.9036 40.5747 15.9036C40.2639 15.9036 39.9531 15.7763 39.726 15.5681C39.5108 15.3484 39.3793 15.0476 39.3793 14.7469C39.3793 14.4462 39.5108 14.1455 39.726 13.9257C40.0607 13.6018 40.5867 13.4978 41.029 13.6828C41.1844 13.7406 41.3159 13.8216 41.4234 13.9257C41.6386 14.1455 41.7701 14.4462 41.7701 14.7469C41.7701 15.0476 41.6386 15.3484 41.4234 15.5681ZM45.6074 19.6164C45.3802 19.8245 45.0694 19.9518 44.7586 19.9518C44.4478 19.9518 44.137 19.8245 43.9099 19.6164C43.6947 19.3966 43.5632 19.0959 43.5632 18.7951C43.5632 18.4944 43.6947 18.1937 43.9099 17.9739C44.3522 17.546 45.1651 17.546 45.6074 17.9739C45.8225 18.1937 45.954 18.4944 45.954 18.7951C45.954 19.0959 45.8225 19.3966 45.6074 19.6164ZM45.6074 15.5681C45.5476 15.6144 45.4878 15.6607 45.428 15.7069C45.3563 15.7532 45.2846 15.7879 45.2129 15.811C45.1412 15.8457 45.0694 15.8689 44.9977 15.8804C44.914 15.892 44.8423 15.9036 44.7586 15.9036C44.4478 15.9036 44.137 15.7763 43.9099 15.5681C43.6947 15.3484 43.5632 15.0476 43.5632 14.7469C43.5632 14.4462 43.6947 14.1455 43.9099 13.9257C44.0175 13.8216 44.149 13.7406 44.3044 13.6828C44.7467 13.4978 45.2726 13.6018 45.6074 13.9257C45.8225 14.1455 45.954 14.4462 45.954 14.7469C45.954 15.0476 45.8225 15.3484 45.6074 15.5681ZM49.7913 19.6164C49.5641 19.8245 49.2533 19.9518 48.9425 19.9518C48.6317 19.9518 48.3209 19.8245 48.0938 19.6164C47.8786 19.3966 47.7471 19.0959 47.7471 18.7951C47.7471 18.4944 47.8786 18.1937 48.0938 17.9739C48.5361 17.546 49.349 17.546 49.7913 17.9739C50.0064 18.1937 50.1379 18.4944 50.1379 18.7951C50.1379 19.0959 50.0064 19.3966 49.7913 19.6164ZM49.7913 15.5681C49.7315 15.6144 49.6717 15.6607 49.612 15.7069C49.5402 15.7532 49.4685 15.7879 49.3968 15.811C49.3251 15.8457 49.2533 15.8689 49.1816 15.8804C49.0979 15.892 49.0143 15.9036 48.9425 15.9036C48.6317 15.9036 48.3209 15.7763 48.0938 15.5681C47.8786 15.3484 47.7471 15.0476 47.7471 14.7469C47.7471 14.4462 47.8786 14.1455 48.0938 13.9257C48.2133 13.8216 48.3329 13.7406 48.4883 13.6828C48.7035 13.5903 48.9425 13.5672 49.1816 13.6134C49.2533 13.625 49.3251 13.6481 49.3968 13.6828C49.4685 13.7059 49.5402 13.7406 49.612 13.7869C49.6717 13.8332 49.7315 13.8794 49.7913 13.9257C50.0064 14.1455 50.1379 14.4462 50.1379 14.7469C50.1379 15.0476 50.0064 15.3484 49.7913 15.5681Z" fill="white"/>
</svg>
