<svg width="50" height="50" viewBox="0 0 50 50" fill="none" xmlns="http://www.w3.org/2000/svg">
<rect x="50" y="50" width="50" height="50" rx="5" transform="rotate(-180 50 50)" fill="#3685FB"/>
<path d="M21.4343 17.449C21.1561 17.7333 21 18.118 21 18.519C21 18.92 21.1561 19.3047 21.4343 19.5891L26.7218 25.0379L21.4343 30.4109C21.1561 30.6953 21 31.08 21 31.481C21 31.882 21.1561 32.2667 21.4343 32.551C21.5732 32.6933 21.7384 32.8062 21.9204 32.8833C22.1024 32.9603 22.2976 33 22.4948 33C22.692 33 22.8872 32.9603 23.0692 32.8833C23.2512 32.8062 23.4164 32.6933 23.5553 32.551L29.8883 26.1156C30.0283 25.9745 30.1394 25.8066 30.2152 25.6217C30.2911 25.4367 30.3301 25.2383 30.3301 25.0379C30.3301 24.8376 30.2911 24.6392 30.2152 24.4542C30.1394 24.2693 30.0283 24.1014 29.8883 23.9603L23.5553 17.449C23.4164 17.3067 23.2512 17.1938 23.0692 17.1167C22.8872 17.0397 22.692 17 22.4948 17C22.2976 17 22.1024 17.0397 21.9204 17.1167C21.7384 17.1938 21.5732 17.3067 21.4343 17.449Z" fill="#FCFCFC"/>
</svg>
